<svg width="365" height="324" viewBox="0 0 365 324" fill="none" xmlns="http://www.w3.org/2000/svg">
 <style>
  .pink {
   fill: #EC008C
  }

  .black {
   fill: #202020
  }

  .yellow {
   fill: #EEEA64
  }

  .yellow-gradient-0 {
   fill: url(#paint0_linear)
  }

  .yellow-gradient-1 {
   fill: url(#paint1_linear)
  }

  .black-gradient-0 {
   fill: url(#paint2_linear)
  }

  .black-gradient-1 {
   fill: url(#paint3_linear)
  }
 </style>
 <path
  d="M88.0264 282.541C93.1011 282.541 96.3826 277.855 96.3826 272.319V272.262C96.3826 266.729 93.1391 262.101 88.0644 262.101C82.9896 262.101 79.6701 266.786 79.6701 272.319V272.376C79.6701 277.909 82.9135 282.541 88.0264 282.541ZM321.502 282.484C325.432 282.484 328.255 280.282 328.255 276.894V276.837C328.255 273.819 326.195 272.208 321.807 271.247C317.457 270.316 316.427 269.27 316.427 267.408V267.351C316.427 265.573 318.067 264.161 320.624 264.161C322.684 264.161 324.516 264.81 326.347 266.306L327.645 264.585C325.622 262.975 323.562 262.158 320.7 262.158C316.961 262.158 314.214 264.444 314.214 267.55V267.607C314.214 270.854 316.312 272.319 320.853 273.307C324.974 274.185 325.966 275.226 325.966 277.062V277.119C325.966 279.069 324.211 280.481 321.578 280.481C318.831 280.481 316.847 279.55 314.786 277.684L313.413 279.321C315.778 281.438 318.373 282.484 321.502 282.484ZM132.287 282.343H134.157L139.575 266.306L145.031 282.343H146.901L153.959 262.44H151.632L145.985 278.897L140.567 262.383H138.736L133.279 278.897L127.67 262.44H125.228L132.287 282.343ZM36.554 282.201H50.3665V280.168H39.8737L45.1391 275.482C48.6494 272.46 50.1377 270.682 50.1377 267.805V267.748C50.1377 264.528 47.5813 262.158 44.0328 262.158C40.5606 262.158 38.6909 263.711 36.8976 266.363L38.5382 267.55C40.1408 265.348 41.5908 264.161 43.842 264.161C46.0169 264.161 47.8484 265.63 47.8484 267.946C47.8484 269.919 46.7419 271.445 43.7276 274.154L36.554 280.481V282.201ZM232.102 282.201H234.354V264.501H240.993V262.44H225.464V264.501H232.102V282.201ZM276.249 282.201H278.5V264.501H285.139V262.44H269.61V264.501H276.249V282.201ZM179.6 282.201H181.89L184.217 276.978H194.977L197.305 282.201H199.708L190.703 262.299H188.605L179.6 282.201ZM88.0644 280.507C84.3632 280.507 81.9978 276.638 81.9978 272.319V272.262C81.9978 267.916 84.3252 264.135 88.0264 264.135C91.6893 264.135 94.0549 268 94.0549 272.319V272.376C94.0549 276.695 91.7655 280.507 88.0644 280.507ZM185.095 274.975L189.635 264.894L194.099 274.975H185.095Z"
  class="black" />
 <path
  d="M125.436 79.3233H135.051L143.732 66.1375L152.357 79.3233H162.247L148.841 59.6545L161.697 40.8647H152.083L143.951 53.3363L135.875 40.8647H125.986L138.842 59.7644L125.436 79.3233Z"
  class="pink" />
 <path
  d="M202.213 79.3233H211.828L220.508 66.1375L229.134 79.3233H239.023L225.618 59.6545L238.474 40.8647H228.859L220.728 53.3363L212.652 40.8647H202.762L215.619 59.7644L202.213 79.3233Z"
  class="pink" />
 <path fill-rule="evenodd" clip-rule="evenodd" class="yellow"
  d="M246.107 208.101L202.304 207.719L183.531 179.423L164.759 207.719L120.956 208.101L183.188 115.966L246.107 208.101Z" />
 <path fill-rule="evenodd" clip-rule="evenodd"
  d="M183.167 116.106V179.958L164.78 207.687L120.977 208.069L183.167 116.106Z" class="yellow-gradient-0" />
 <path fill-rule="evenodd" clip-rule="evenodd"
  d="M183.182 115.916V179.957L202.412 207.67L246.215 208.052L183.182 115.916Z" class="yellow-gradient-1" />
 <path fill-rule="evenodd" clip-rule="evenodd" d="M202.302 207.719L251.905 208.101L279.758 123.395L202.302 207.719Z"
  class="yellow" />
 <path fill-rule="evenodd" clip-rule="evenodd" d="M164.773 207.719L115.171 208.101L87.3171 123.395L164.773 207.719Z"
  class="yellow" />
 <defs>
  <linearGradient id="paint0_linear" x1="172.221" y1="178.498" x2="142.454" y2="207.89" gradientUnits="userSpaceOnUse">
   <stop stop-color="#EAEB6D" />
   <stop offset="0.577386" stop-color="#CFC24E" />
   <stop offset="1" stop-color="#885800" />
  </linearGradient>
  <linearGradient id="paint1_linear" x1="195.228" y1="178.863" x2="224.995" y2="208.255" gradientUnits="userSpaceOnUse">
   <stop stop-color="#EAEB6D" />
   <stop offset="0.577386" stop-color="#CFC24E" />
   <stop offset="1" stop-color="#885800" />
  </linearGradient>

  <linearGradient id="paint2_linear" x1="114.79" y1="125.535" x2="96.4827" y2="144.102" gradientUnits="userSpaceOnUse">
   <stop stop-color="#383839" />
   <stop offset="1" />
  </linearGradient>
  <linearGradient id="paint3_linear" x1="134.758" y1="125.306" x2="153.021" y2="144.019" gradientUnits="userSpaceOnUse">
   <stop stop-color="#383839" />
   <stop offset="1" />
  </linearGradient>
 </defs>
</svg>