<svg width="40" height="40" viewBox="0 0 40 40" fill="none" xmlns="http://www.w3.org/2000/svg">
<path d="M7.5 17C7.5 17.8284 8.17157 18.5 9 18.5C9.82843 18.5 10.5 17.8284 10.5 17H7.5ZM9 9L9 7.5H7.5V9H9ZM17 10.5C17.8284 10.5 18.5 9.82843 18.5 9C18.5 8.17157 17.8284 7.5 17 7.5V10.5ZM10.5 17V9H7.5V17H10.5ZM9 10.5H17V7.5H9L9 10.5Z" fill="white"/>
<path d="M18.5 9C18.5 8.17157 17.8284 7.5 17 7.5C16.1716 7.5 15.5 8.17157 15.5 9L18.5 9ZM17 17L17 18.5L18.5 18.5L18.5 17L17 17ZM9 15.5C8.17157 15.5 7.5 16.1716 7.5 17C7.5 17.8284 8.17157 18.5 9 18.5L9 15.5ZM15.5 9L15.5 17L18.5 17L18.5 9L15.5 9ZM17 15.5L9 15.5L9 18.5L17 18.5L17 15.5Z" fill="white"/>
<path d="M25.5 16C25.5 15.1716 24.8284 14.5 24 14.5C23.1716 14.5 22.5 15.1716 22.5 16L25.5 16ZM24 24L24 25.5L25.5 25.5L25.5 24L24 24ZM16 22.5C15.1716 22.5 14.5 23.1716 14.5 24C14.5 24.8284 15.1716 25.5 16 25.5L16 22.5ZM22.5 16L22.5 24L25.5 24L25.5 16L22.5 16ZM24 22.5L16 22.5L16 25.5L24 25.5L24 22.5Z" fill="white"/>
<path d="M32.5 23C32.5 22.1716 31.8284 21.5 31 21.5C30.1716 21.5 29.5 22.1716 29.5 23L32.5 23ZM31 31L31 32.5L32.5 32.5L32.5 31L31 31ZM23 29.5C22.1716 29.5 21.5 30.1716 21.5 31C21.5 31.8284 22.1716 32.5 23 32.5L23 29.5ZM29.5 23L29.5 31L32.5 31L32.5 23L29.5 23ZM31 29.5L23 29.5L23 32.5L31 32.5L31 29.5Z" fill="white"/>
<rect x="1.5" y="1.5" width="37" height="37" stroke="white" stroke-width="3"/>
</svg>
