<svg width="54" height="55" viewBox="0 0 54 55" fill="none" xmlns="http://www.w3.org/2000/svg">
<path d="M15.7661 14.2764L17.2803 13.3246C18.7021 12.4324 20.5591 12.8066 21.6246 14.1968L23.7416 16.9678C24.6634 18.1743 24.7558 19.8492 23.9663 21.1083L21.7712 24.6125C22.3735 26.2167 23.3462 27.6978 24.6865 29.0566C25.967 30.3755 27.4993 31.424 29.1924 32.1401L32.3812 30.0774C33.5913 29.2969 35.1617 29.4341 36.2778 30.4174L38.8824 32.7065C40.182 33.8502 40.5048 35.8042 39.6369 37.2797L38.7064 38.8613C37.7804 40.4352 36.1142 41.3493 34.3333 41.2581C30.1275 41.045 25.6213 38.3605 20.8129 33.2049C15.9976 28.0414 13.5319 23.2413 13.4189 18.8104C13.3709 16.9459 14.2629 15.2206 15.7661 14.2764Z" fill="#202020"/>
</svg>
