<svg width="25" height="25" viewBox="0 0 25 25" fill="none" xmlns="http://www.w3.org/2000/svg">
<path fill-rule="evenodd" clip-rule="evenodd" d="M0 12.5C0 15.8152 1.31696 18.9946 3.66117 21.3388C6.00537 23.683 9.18479 25 12.5 25C15.8152 25 18.9946 23.683 21.3388 21.3388C23.683 18.9946 25 15.8152 25 12.5C25 9.18479 23.683 6.00537 21.3388 3.66117C18.9946 1.31696 15.8152 0 12.5 0C9.18479 0 6.00537 1.31696 3.66117 3.66117C1.31696 6.00537 0 9.18479 0 12.5ZM13.0531 16.6344C13.1998 16.7811 13.2822 16.98 13.2822 17.1875C13.2822 17.395 13.1998 17.5939 13.0531 17.7406C12.9064 17.8873 12.7075 17.9697 12.5 17.9697C12.2925 17.9697 12.0936 17.8873 11.9469 17.7406L7.25937 13.0531C7.18662 12.9806 7.1289 12.8943 7.08951 12.7994C7.05013 12.7045 7.02985 12.6028 7.02985 12.5C7.02985 12.3972 7.05013 12.2955 7.08951 12.2006C7.1289 12.1057 7.18662 12.0194 7.25937 11.9469L11.9469 7.25937C12.0195 7.18674 12.1057 7.12912 12.2007 7.08981C12.2956 7.0505 12.3973 7.03026 12.5 7.03026C12.6027 7.03026 12.7044 7.0505 12.7993 7.08981C12.8943 7.12912 12.9805 7.18674 13.0531 7.25937C13.1258 7.33201 13.1834 7.41825 13.2227 7.51315C13.262 7.60806 13.2822 7.70977 13.2822 7.8125C13.2822 7.91523 13.262 8.01694 13.2227 8.11185C13.1834 8.20675 13.1258 8.29299 13.0531 8.36563L9.69844 11.7188H17.1875C17.3947 11.7188 17.5934 11.8011 17.7399 11.9476C17.8864 12.0941 17.9688 12.2928 17.9688 12.5C17.9688 12.7072 17.8864 12.9059 17.7399 13.0524C17.5934 13.1989 17.3947 13.2812 17.1875 13.2812H9.69844L13.0531 16.6344Z" fill="black"/>
</svg>
