<svg width="84" height="84" viewBox="0 0 84 84" fill="none" xmlns="http://www.w3.org/2000/svg">
<path d="M41.75 6.95837C22.5659 6.95837 6.95833 22.5659 6.95833 41.75C6.95833 60.9342 22.5659 76.5417 41.75 76.5417C60.9341 76.5417 76.5417 60.9342 76.5417 41.75C76.5417 22.5659 60.9341 6.95837 41.75 6.95837ZM41.75 69.5834C26.4034 69.5834 13.9167 57.0966 13.9167 41.75C13.9167 26.4034 26.4034 13.9167 41.75 13.9167C57.0966 13.9167 69.5833 26.4034 69.5833 41.75C69.5833 57.0966 57.0966 69.5834 41.75 69.5834Z" fill="white"/>
<path d="M31.3125 59.1458L59.1458 41.75L31.3125 24.3541V59.1458Z" fill="white"/>
</svg>
