<svg width="54" height="55" viewBox="0 0 54 55" fill="none" xmlns="http://www.w3.org/2000/svg">
<path d="M36.6888 16.8584C38.33 20.3846 37.9563 24.5446 36.1525 27.9246C34.625 30.6709 32.4313 32.9946 30.5625 35.5459C29.75 36.6834 28.9375 37.9021 28.3363 39.2184C28.125 39.6571 27.9788 40.1121 27.8163 40.5671C27.6538 41.0221 27.5075 41.4771 27.3613 41.9321C27.215 42.3546 27.0363 42.8584 26.5 42.8584C25.8663 42.8584 25.6875 42.1434 25.5575 41.6559C25.1675 40.4696 24.7775 39.3321 24.1763 38.2434C23.4938 36.9596 22.6325 35.7734 21.755 34.6196L36.6888 16.8584ZM21.82 20.7909L16.4575 27.1609C17.4488 29.2571 18.9275 31.0446 20.3413 32.8321C20.6825 33.2384 21.0238 33.6609 21.3488 34.0996L28.125 26.0721L28.06 26.0884C25.6875 26.9009 23.055 25.6984 22.1125 23.3584C21.9825 23.0821 21.885 22.7571 21.82 22.4321C21.7306 21.8942 21.7306 21.3451 21.82 20.8071V20.7909ZM17.6925 14.6159L17.6763 14.6321C15.0438 17.9634 14.5888 22.5946 16.165 26.5109L22.6488 18.8084L22.5675 18.7271L17.6925 14.6159ZM30.1075 10.9434L24.875 17.1346L24.94 17.1184C27.1175 16.3709 29.555 17.3134 30.66 19.2959C30.9038 19.7509 31.0988 20.2384 31.1638 20.7259C31.2613 21.3434 31.2938 21.7821 31.18 22.3834V22.3996L36.38 16.2246C35.0207 13.7537 32.7906 11.8769 30.1238 10.9596L30.1075 10.9434ZM23.0713 18.3046L29.425 10.7484L29.36 10.7321C28.4175 10.4884 27.4588 10.3584 26.5 10.3584C23.2988 10.3584 20.2763 11.7396 18.1313 14.1121L18.0988 14.1284L23.0713 18.3046Z" fill="#202020"/>
</svg>
