<svg width="25" height="25" viewBox="0 0 25 25" fill="none" xmlns="http://www.w3.org/2000/svg">
<path fill-rule="evenodd" clip-rule="evenodd" d="M25 12.5C25 15.8152 23.683 18.9946 21.3388 21.3388C18.9946 23.683 15.8152 25 12.5 25C9.18479 25 6.00537 23.683 3.66117 21.3388C1.31696 18.9946 0 15.8152 0 12.5C0 9.18479 1.31696 6.00537 3.66117 3.66117C6.00537 1.31696 9.18479 0 12.5 0C15.8152 0 18.9946 1.31696 21.3388 3.66117C23.683 6.00537 25 9.18479 25 12.5ZM11.9469 16.6344C11.8002 16.7811 11.7178 16.98 11.7178 17.1875C11.7178 17.395 11.8002 17.5939 11.9469 17.7406C12.0936 17.8873 12.2925 17.9697 12.5 17.9697C12.7075 17.9697 12.9064 17.8873 13.0531 17.7406L17.7406 13.0531C17.8134 12.9806 17.8711 12.8943 17.9105 12.7994C17.9499 12.7045 17.9701 12.6028 17.9701 12.5C17.9701 12.3972 17.9499 12.2955 17.9105 12.2006C17.8711 12.1057 17.8134 12.0194 17.7406 11.9469L13.0531 7.25937C12.9805 7.18674 12.8943 7.12912 12.7993 7.08981C12.7044 7.0505 12.6027 7.03026 12.5 7.03026C12.3973 7.03026 12.2956 7.0505 12.2007 7.08981C12.1057 7.12912 12.0195 7.18674 11.9469 7.25937C11.8742 7.33201 11.8166 7.41825 11.7773 7.51315C11.738 7.60806 11.7178 7.70977 11.7178 7.8125C11.7178 7.91523 11.738 8.01694 11.7773 8.11185C11.8166 8.20675 11.8742 8.29299 11.9469 8.36563L15.3016 11.7188H7.8125C7.6053 11.7188 7.40659 11.8011 7.26007 11.9476C7.11356 12.0941 7.03125 12.2928 7.03125 12.5C7.03125 12.7072 7.11356 12.9059 7.26007 13.0524C7.40659 13.1989 7.6053 13.2812 7.8125 13.2812H15.3016L11.9469 16.6344Z" fill="black"/>
</svg>
