<svg width="40" height="40" viewBox="0 0 40 40" fill="none" xmlns="http://www.w3.org/2000/svg">
<path d="M7.5 17C7.5 17.8284 8.17157 18.5 9 18.5C9.82843 18.5 10.5 17.8284 10.5 17H7.5ZM9 9L9 7.5H7.5V9H9ZM17 10.5C17.8284 10.5 18.5 9.82843 18.5 9C18.5 8.17157 17.8284 7.5 17 7.5V10.5ZM10.5 17V9H7.5V17H10.5ZM9 10.5H17V7.5H9L9 10.5Z" fill="#F7008C"/>
<path d="M14.5 24C14.5 24.8284 15.1716 25.5 16 25.5C16.8284 25.5 17.5 24.8284 17.5 24H14.5ZM16 16L16 14.5H14.5V16H16ZM24 17.5C24.8284 17.5 25.5 16.8284 25.5 16C25.5 15.1716 24.8284 14.5 24 14.5V17.5ZM17.5 24V16H14.5V24H17.5ZM16 17.5H24V14.5H16L16 17.5Z" fill="#F7008C"/>
<path d="M21.5 31C21.5 31.8284 22.1716 32.5 23 32.5C23.8284 32.5 24.5 31.8284 24.5 31H21.5ZM23 23L23 21.5H21.5V23H23ZM31 24.5C31.8284 24.5 32.5 23.8284 32.5 23C32.5 22.1716 31.8284 21.5 31 21.5V24.5ZM24.5 31V23H21.5V31H24.5ZM23 24.5H31V21.5H23L23 24.5Z" fill="#F7008C"/>
<path d="M32.5 23C32.5 22.1716 31.8284 21.5 31 21.5C30.1716 21.5 29.5 22.1716 29.5 23L32.5 23ZM31 31L31 32.5L32.5 32.5L32.5 31L31 31ZM23 29.5C22.1716 29.5 21.5 30.1716 21.5 31C21.5 31.8284 22.1716 32.5 23 32.5L23 29.5ZM29.5 23L29.5 31L32.5 31L32.5 23L29.5 23ZM31 29.5L23 29.5L23 32.5L31 32.5L31 29.5Z" fill="#F7008C"/>
<rect x="1.5" y="1.5" width="37" height="37" stroke="#F7008C" stroke-width="3"/>
</svg>
