<svg width="40" height="40" viewBox="0 0 40 40" fill="none" xmlns="http://www.w3.org/2000/svg">
<path d="M37 20.6084C37 10.8809 29.1611 3 19.5 3C9.83234 3 2 10.8809 2 20.6084C2 29.395 8.39734 36.6805 16.7656 38V25.6994H12.3217V20.6095H16.7656V16.728C16.7656 12.3159 19.3742 9.87938 23.373 9.87938C25.2881 9.87938 27.293 10.2227 27.293 10.2227V14.5555H25.0825C22.9125 14.5555 22.2344 15.9147 22.2344 17.3068V20.6084H27.0873L26.3075 25.6983H22.2344V37.9989C30.5961 36.6794 37 29.3939 37 20.6073V20.6084Z" fill="#202020"/>
</svg>
